<svg xmlns="http://www.w3.org/2000/svg" width="960" height="200" viewBox="0 0 960 200" role="img" aria-label="Pipeline diagram placeholder">
  <defs>
    <linearGradient id="bg" x1="0" y1="0" x2="1" y2="1">
      <stop offset="0%" stop-color="#18181b"/>
      <stop offset="100%" stop-color="#09090b"/>
    </linearGradient>
    <linearGradient id="accent" x1="0" y1="0" x2="1" y2="0">
      <stop offset="0%" stop-color="#22d3ee"/>
      <stop offset="100%" stop-color="#a855f7"/>
    </linearGradient>
  </defs>
  <rect width="960" height="200" fill="url(#bg)" rx="12"/>
  <text x="480" y="36" text-anchor="middle" fill="#a1a1aa" font-family="system-ui,sans-serif" font-size="14">Replace with your exported pipeline figure</text>
  <g font-family="system-ui,sans-serif" font-size="13" fill="#e4e4e7">
    <rect x="24" y="72" width="120" height="56" rx="8" fill="#27272a" stroke="#3f3f46"/>
    <text x="84" y="104" text-anchor="middle">Sensors</text>
    <path d="M150 100 L174 100" stroke="url(#accent)" stroke-width="2"/>
    <polygon points="174,100 166,96 166,104" fill="#22d3ee"/>
    <rect x="180" y="72" width="120" height="56" rx="8" fill="#27272a" stroke="#3f3f46"/>
    <text x="240" y="104" text-anchor="middle">Features</text>
    <path d="M306 100 L330 100" stroke="url(#accent)" stroke-width="2"/>
    <polygon points="330,100 322,96 322,104" fill="#22d3ee"/>
    <rect x="336" y="72" width="120" height="56" rx="8" fill="#27272a" stroke="#3f3f46"/>
    <text x="396" y="104" text-anchor="middle">Kalman</text>
    <path d="M462 100 L486 100" stroke="url(#accent)" stroke-width="2"/>
    <polygon points="486,100 478,96 478,104" fill="#22d3ee"/>
    <rect x="492" y="72" width="100" height="56" rx="8" fill="#27272a" stroke="#3f3f46"/>
    <text x="542" y="104" text-anchor="middle">LSTM</text>
    <path d="M598 100 L622 100" stroke="url(#accent)" stroke-width="2"/>
    <polygon points="622,100 614,96 614,104" fill="#22d3ee"/>
    <rect x="628" y="72" width="110" height="56" rx="8" fill="#27272a" stroke="#3f3f46"/>
    <text x="683" y="104" text-anchor="middle">Quantiles</text>
    <path d="M744 100 L768 100" stroke="url(#accent)" stroke-width="2"/>
    <polygon points="768,100 760,96 760,104" fill="#22d3ee"/>
    <rect x="774" y="72" width="162" height="56" rx="8" fill="#27272a" stroke="#3f3f46"/>
    <text x="855" y="104" text-anchor="middle">Intervals</text>
  </g>
</svg>
